<svg xmlns="http://www.w3.org/2000/svg" width="1200" height="630" viewBox="0 0 1200 630">
  <defs>
    <linearGradient id="bgGradient" x1="0%" y1="0%" x2="100%" y2="100%">
      <stop offset="0%" stop-color="#3498db" />
      <stop offset="100%" stop-color="#2980b9" />
    </linearGradient>
    <radialGradient id="sunGradient" cx="50%" cy="50%" r="50%" fx="50%" fy="50%">
      <stop offset="0%" stop-color="#ffeb3b" />
      <stop offset="100%" stop-color="#ff9800" />
    </radialGradient>
    <linearGradient id="cloudGradient" x1="0%" y1="0%" x2="100%" y2="100%">
      <stop offset="0%" stop-color="#eceff1" />
      <stop offset="100%" stop-color="#b0bec5" />
    </linearGradient>
    <linearGradient id="rainGradient" x1="0%" y1="0%" x2="100%" y2="100%">
      <stop offset="0%" stop-color="#64b5f6" />
      <stop offset="100%" stop-color="#1976d2" />
    </linearGradient>
  </defs>
  
  <!-- Background -->
  <rect width="1200" height="630" fill="url(#bgGradient)" />
  
  <!-- Sun -->
  <circle cx="300" cy="250" r="120" fill="url(#sunGradient)" />
  <g stroke="#ff9800" stroke-width="12" stroke-linecap="round">
    <line x1="300" y1="80" x2="300" y2="110" />
    <line x1="300" y1="390" x2="300" y2="420" />
    <line x1="470" y1="250" x2="440" y2="250" />
    <line x1="160" y1="250" x2="130" y2="250" />
    <line x1="414" y1="136" x2="392" y2="158" />
    <line x1="208" y1="342" x2="186" y2="364" />
    <line x1="414" y1="364" x2="392" y2="342" />
    <line x1="208" y1="158" x2="186" y2="136" />
  </g>
  
  <!-- Cloud with Rain -->
  <path d="M900,220c0-49.5-40.5-90-90-90c-40.5,0-75,27-86.25,63.75c-5.25-2.25-11.25-3.75-18-3.75c-18.75,0-33.75,12.75-38.25,30c-2.25,0-5.25-0.75-7.5-0.75c-33,0-60,27-60,60s27,60,60,60h210c33,0,60-27,60-60S933,220,900,220z" fill="url(#cloudGradient)" />
  
  <!-- Rain Drops -->
  <g fill="url(#rainGradient)">
    <path d="M720,350c0,8.25-6.75,15-15,15s-15-6.75-15-15s15-37.5,15-37.5S720,341.75,720,350z" />
    <path d="M780,350c0,8.25-6.75,15-15,15s-15-6.75-15-15s15-37.5,15-37.5S780,341.75,780,350z" />
    <path d="M840,350c0,8.25-6.75,15-15,15s-15-6.75-15-15s15-37.5,15-37.5S840,341.75,840,350z" />
    <path d="M900,350c0,8.25-6.75,15-15,15s-15-6.75-15-15s15-37.5,15-37.5S900,341.75,900,350z" />
    <path d="M750,410c0,8.25-6.75,15-15,15s-15-6.75-15-15s15-37.5,15-37.5S750,401.75,750,410z" />
    <path d="M810,410c0,8.25-6.75,15-15,15s-15-6.75-15-15s15-37.5,15-37.5S810,401.75,810,410z" />
    <path d="M870,410c0,8.25-6.75,15-15,15s-15-6.75-15-15s15-37.5,15-37.5S870,401.75,870,410z" />
  </g>
  
  <!-- App Name -->
  <text x="600" y="500" font-family="Montserrat, sans-serif" font-size="80" font-weight="700" text-anchor="middle" fill="#ffffff">Ma Météo Locale</text>
  
  <!-- Tagline -->
  <text x="600" y="560" font-family="Montserrat, sans-serif" font-size="32" font-weight="400" text-anchor="middle" fill="#ffffff">Prévisions météo en temps réel près de chez vous</text>
</svg> 