<svg xmlns="http://www.w3.org/2000/svg" viewBox="0 0 64 64">
  <defs>
    <radialGradient id="sunGradient" cx="50%" cy="50%" r="50%" fx="50%" fy="50%">
      <stop offset="0%" stop-color="#ffeb3b" />
      <stop offset="100%" stop-color="#ff9800" />
    </radialGradient>
    <linearGradient id="cloudGradient" x1="0%" y1="0%" x2="100%" y2="100%">
      <stop offset="0%" stop-color="#eceff1" />
      <stop offset="100%" stop-color="#b0bec5" />
    </linearGradient>
  </defs>
  
  <!-- Sun -->
  <circle cx="32" cy="28" r="14" fill="url(#sunGradient)" />
  <g stroke="#ff9800" stroke-width="2" stroke-linecap="round">
    <line x1="32" y1="8" x2="32" y2="12" />
    <line x1="32" y1="44" x2="32" y2="48" />
    <line x1="52" y1="28" x2="48" y2="28" />
    <line x1="16" y1="28" x2="12" y2="28" />
    <line x1="45.5" y1="14.5" x2="42.7" y2="17.3" />
    <line x1="21.3" y1="38.7" x2="18.5" y2="41.5" />
    <line x1="45.5" y1="41.5" x2="42.7" y2="38.7" />
    <line x1="21.3" y1="17.3" x2="18.5" y2="14.5" />
  </g>
  
  <!-- Small Cloud -->
  <path d="M52,40c0-3.3-2.7-6-6-6c-0.6,0-1.1,0.1-1.6,0.2c-0.8-1.4-2.3-2.2-3.9-2.2c-2.5,0-4.5,2-4.5,4.5c0,0.2,0,0.4,0.1,0.6
    c-1.9,0.5-3.1,2.2-3.1,4.1c0,2.3,1.9,4.2,4.2,4.2h11.6c2.3,0,4.2-1.9,4.2-4.2C52.9,41.1,52.6,40.5,52,40z" fill="url(#cloudGradient)" opacity="0.8" />
</svg> 