<svg xmlns="http://www.w3.org/2000/svg" viewBox="0 0 64 64">
  <defs>
    <radialGradient id="sunGradient" cx="50%" cy="50%" r="50%" fx="50%" fy="50%">
      <stop offset="0%" stop-color="#ffeb3b" />
      <stop offset="100%" stop-color="#ff9800" />
    </radialGradient>
    <linearGradient id="cloudGradient" x1="0%" y1="0%" x2="100%" y2="100%">
      <stop offset="0%" stop-color="#eceff1" />
      <stop offset="100%" stop-color="#b0bec5" />
    </linearGradient>
  </defs>
  <circle cx="22" cy="22" r="10" fill="url(#sunGradient)" />
  <g stroke="#ff9800" stroke-width="1.5" stroke-linecap="round">
    <line x1="22" y1="7" x2="22" y2="10" />
    <line x1="22" y1="34" x2="22" y2="37" />
    <line x1="37" y1="22" x2="34" y2="22" />
    <line x1="10" y1="22" x2="7" y2="22" />
    <line x1="32.5" y1="11.5" x2="30.3" y2="13.7" />
    <line x1="13.7" y1="30.3" x2="11.5" y2="32.5" />
    <line x1="32.5" y1="32.5" x2="30.3" y2="30.3" />
    <line x1="13.7" y1="13.7" x2="11.5" y2="11.5" />
  </g>
  <path d="M50,36c0-6.6-5.4-12-12-12c-3.1,0-6,1.2-8.1,3.2c0.7,1.6,1.1,3.4,1.1,5.3c0,1.2-0.2,2.4-0.5,3.5c-0.7-0.3-1.5-0.5-2.4-0.5
    c-2.5,0-4.5,1.7-5.1,4c-0.3,0-0.7-0.1-1-0.1c-4.4,0-8,3.6-8,8s3.6,8,8,8h28c4.4,0,8-3.6,8-8S54.4,36,50,36z" fill="url(#cloudGradient)" />
</svg> 