<svg xmlns="http://www.w3.org/2000/svg" viewBox="0 0 64 64">
  <defs>
    <linearGradient id="cloudGradient" x1="0%" y1="0%" x2="100%" y2="100%">
      <stop offset="0%" stop-color="#eceff1" />
      <stop offset="100%" stop-color="#b0bec5" />
    </linearGradient>
    <linearGradient id="rainGradient" x1="0%" y1="0%" x2="100%" y2="100%">
      <stop offset="0%" stop-color="#64b5f6" />
      <stop offset="100%" stop-color="#1976d2" />
    </linearGradient>
  </defs>
  <!-- Cloud -->
  <path d="M50,26c0-6.6-5.4-12-12-12c-5.4,0-10,3.6-11.5,8.5c-0.7-0.3-1.5-0.5-2.4-0.5c-2.5,0-4.5,1.7-5.1,4c-0.3,0-0.7-0.1-1-0.1
    c-4.4,0-8,3.6-8,8s3.6,8,8,8h28c4.4,0,8-3.6,8-8S54.4,26,50,26z" fill="url(#cloudGradient)" />
  
  <!-- Rain Drops -->
  <g fill="url(#rainGradient)">
    <path d="M20,46c0,1.1-0.9,2-2,2s-2-0.9-2-2s2-5,2-5S20,44.9,20,46z" />
    <path d="M30,46c0,1.1-0.9,2-2,2s-2-0.9-2-2s2-5,2-5S30,44.9,30,46z" />
    <path d="M40,46c0,1.1-0.9,2-2,2s-2-0.9-2-2s2-5,2-5S40,44.9,40,46z" />
    <path d="M50,46c0,1.1-0.9,2-2,2s-2-0.9-2-2s2-5,2-5S50,44.9,50,46z" />
    <path d="M25,56c0,1.1-0.9,2-2,2s-2-0.9-2-2s2-5,2-5S25,54.9,25,56z" />
    <path d="M35,56c0,1.1-0.9,2-2,2s-2-0.9-2-2s2-5,2-5S35,54.9,35,56z" />
    <path d="M45,56c0,1.1-0.9,2-2,2s-2-0.9-2-2s2-5,2-5S45,54.9,45,56z" />
  </g>
</svg> 