<svg xmlns="http://www.w3.org/2000/svg" viewBox="0 0 64 64">
  <defs>
    <linearGradient id="cloudGradient" x1="0%" y1="0%" x2="100%" y2="100%">
      <stop offset="0%" stop-color="#90a4ae" />
      <stop offset="100%" stop-color="#546e7a" />
    </linearGradient>
    <linearGradient id="rainGradient" x1="0%" y1="0%" x2="100%" y2="100%">
      <stop offset="0%" stop-color="#64b5f6" />
      <stop offset="100%" stop-color="#1976d2" />
    </linearGradient>
  </defs>
  
  <!-- Dark Cloud -->
  <path d="M50,24c0-6.6-5.4-12-12-12c-5.4,0-10,3.6-11.5,8.5c-0.7-0.3-1.5-0.5-2.4-0.5c-2.5,0-4.5,1.7-5.1,4c-0.3,0-0.7-0.1-1-0.1
    c-4.4,0-8,3.6-8,8s3.6,8,8,8h28c4.4,0,8-3.6,8-8S54.4,24,50,24z" fill="url(#cloudGradient)" />
  
  <!-- Heavy Rain Drops -->
  <g fill="url(#rainGradient)">
    <path d="M18,42c0,1.1-0.9,2-2,2s-2-0.9-2-2s2-5,2-5S18,40.9,18,42z" />
    <path d="M28,42c0,1.1-0.9,2-2,2s-2-0.9-2-2s2-5,2-5S28,40.9,28,42z" />
    <path d="M38,42c0,1.1-0.9,2-2,2s-2-0.9-2-2s2-5,2-5S38,40.9,38,42z" />
    <path d="M48,42c0,1.1-0.9,2-2,2s-2-0.9-2-2s2-5,2-5S48,40.9,48,42z" />
    <path d="M23,52c0,1.1-0.9,2-2,2s-2-0.9-2-2s2-5,2-5S23,50.9,23,52z" />
    <path d="M33,52c0,1.1-0.9,2-2,2s-2-0.9-2-2s2-5,2-5S33,50.9,33,52z" />
    <path d="M43,52c0,1.1-0.9,2-2,2s-2-0.9-2-2s2-5,2-5S43,50.9,43,52z" />
  </g>
</svg> 