<svg xmlns="http://www.w3.org/2000/svg" viewBox="0 0 64 64">
  <defs>
    <linearGradient id="cloudGradient" x1="0%" y1="0%" x2="100%" y2="100%">
      <stop offset="0%" stop-color="#90a4ae" />
      <stop offset="100%" stop-color="#546e7a" />
    </linearGradient>
    <linearGradient id="lightningGradient" x1="0%" y1="0%" x2="100%" y2="100%">
      <stop offset="0%" stop-color="#ffeb3b" />
      <stop offset="100%" stop-color="#ffa000" />
    </linearGradient>
    <linearGradient id="rainGradient" x1="0%" y1="0%" x2="100%" y2="100%">
      <stop offset="0%" stop-color="#64b5f6" />
      <stop offset="100%" stop-color="#1976d2" />
    </linearGradient>
  </defs>
  
  <!-- Dark Cloud -->
  <path d="M50,26c0-6.6-5.4-12-12-12c-5.4,0-10,3.6-11.5,8.5c-0.7-0.3-1.5-0.5-2.4-0.5c-2.5,0-4.5,1.7-5.1,4c-0.3,0-0.7-0.1-1-0.1
    c-4.4,0-8,3.6-8,8s3.6,8,8,8h28c4.4,0,8-3.6,8-8S54.4,26,50,26z" fill="url(#cloudGradient)" />
  
  <!-- Lightning Bolt -->
  <path d="M29,34l-3,10h5l-2,12l12-16h-8l3-6H29z" fill="url(#lightningGradient)" />
  
  <!-- Rain Drops -->
  <g fill="url(#rainGradient)">
    <path d="M18,45c0,1.1-0.9,2-2,2s-2-0.9-2-2s2-5,2-5S18,43.9,18,45z" />
    <path d="M48,45c0,1.1-0.9,2-2,2s-2-0.9-2-2s2-5,2-5S48,43.9,48,45z" />
    <path d="M24,54c0,1.1-0.9,2-2,2s-2-0.9-2-2s2-5,2-5S24,52.9,24,54z" />
    <path d="M44,54c0,1.1-0.9,2-2,2s-2-0.9-2-2s2-5,2-5S44,52.9,44,54z" />
  </g>
</svg> 